<?xml version="1.0" encoding="UTF-8"?><svg id="b" xmlns="http://www.w3.org/2000/svg" viewBox="0 0 86.4 60.6"><defs><style>.d{fill:#231f20;}</style></defs><g id="c"><path class="d" d="M2.6,27.9c0-7.8,6-12.5,12.4-12.5s11.2,5,11.2,11.4-.2,2.6-.3,3.2H7.9v-4.7h13.3l-1.1,1.3c0-3.8-1.7-5.8-4.8-5.8s-5.8,2.4-5.8,7.1,2.7,7.1,7.3,7.1,4-.6,6.1-1.7l2.3,4.3c-2.7,1.7-6.2,2.8-9.4,2.8-7.4,0-13.2-4.6-13.2-12.5Z"/><path class="d" d="M30.5,16h5.3l.5,2.9h.2c.9-1.9,2.4-3.5,5.2-3.5s3.6,1.3,4.1,3.9c.9-2.1,2.5-3.9,5.3-3.9s5.3,2.9,5.3,7.7v16.7h-6.7v-16.2c0-1.5-.4-2.2-1.3-2.2s-1.5.7-2.2,2.3v16.1h-5.5v-16.2c0-1.5-.4-2.2-1.4-2.2s-1.5.7-2.1,2.3v16.1h-6.7v-23.8Z"/><path class="d" d="M60.8,27.9c0-7.9,6.4-12.5,13.8-12.5s6.9,1.3,8.9,3.2l-3.2,4.4c-1.8-1.3-3.5-1.9-5.3-1.9-4.1,0-6.9,2.7-6.9,6.8s2.8,6.8,6.7,6.8,4.6-1.1,6.3-2.3l2.9,4.5c-2.9,2.4-6.5,3.5-9.8,3.5-7.5,0-13.3-4.6-13.3-12.5Z"/></g></svg>