<svg id="Layer_11" data-name="Layer 11" xmlns="http://www.w3.org/2000/svg" viewBox="0 0 260.63 238.63"><defs><clipPath id="clip-path" transform="translate(-296.43 -121.18)"><path id="SVGID" class="cls-1" d="m318 148.83 4.06.91a21.19 21.19 0 0 0-17.92 23.79l-4.05-.91A21.18 21.18 0 0 1 318 148.83Z"/></clipPath><clipPath id="clip-path-2" transform="translate(-296.43 -121.18)"><path id="SVGID-2" data-name="SVGID" class="cls-1" d="m342.52 358.32-4.06-.91a20.92 20.92 0 0 1-16.1-17.69l4.06.91a20.92 20.92 0 0 0 16.1 17.69Z"/></clipPath><clipPath id="clip-path-3" transform="translate(-296.43 -121.18)"><path id="SVGID-3" data-name="SVGID" class="cls-1" d="m342.3 359.29-4.06-.91a21.69 21.69 0 0 0 7.73.31l4 .91a21.64 21.64 0 0 1-7.67-.31Z"/></clipPath><clipPath id="clip-path-4" transform="translate(-296.43 -121.18)"><path id="SVGID-4" data-name="SVGID" class="cls-1" d="m513.49 122.69 4.06.91a20.68 20.68 0 0 0-7.38-.3l-4.05-.91a20.63 20.63 0 0 1 7.37.3Z"/></clipPath><clipPath id="clip-path-5" transform="translate(-296.43 -121.18)"><path id="SVGID-5" data-name="SVGID" class="cls-1" d="m513.7 121.7 4.06.91a21.9 21.9 0 0 1 16.86 18.53l-4.06-.91a21.9 21.9 0 0 0-16.86-18.53Z"/></clipPath><clipPath id="clip-path-6" transform="translate(-296.43 -121.18)"><path id="SVGID-6" data-name="SVGID" class="cls-1" d="m552.81 307.34 4.05.91a22.18 22.18 0 0 1-18.75 24.91l-4.06-.91a22.19 22.19 0 0 0 18.76-24.91Z"/></clipPath><style>.cls-1{fill:none}.cls-2{isolation:isolate}.cls-4{fill:#857364}.cls-5{fill:#8a7768}.cls-6{fill:#8f7c6c}.cls-7{fill:#94806f}.cls-8{fill:#998573}.cls-9{fill:#9e8977}.cls-10{fill:#a38d7b}.cls-11{fill:#a8927f}.cls-12{fill:#ae9683}.cls-14{fill:#ad9683}.cls-16{fill:#806f60}.cls-21{fill:#ffddc0}.cls-22{fill:#f6e8e8}.cls-35{fill:#891614}.cls-37{fill:#e84234}</style></defs><g class="cls-2"><g class="cls-2"><g class="cls-2" style="clip-path:url(#clip-path)"><path class="cls-4" d="m318 148.83 4.06.91a20.85 20.85 0 0 0-13.22 7.42l-4.05-.91a20.85 20.85 0 0 1 13.21-7.42" transform="translate(-296.43 -121.18)"/><path class="cls-5" d="m304.82 156.25 4.05.91a21.25 21.25 0 0 0-1.87 2.64l-4.06-.91a21.32 21.32 0 0 1 1.87-2.64" transform="translate(-296.43 -121.18)"/><path class="cls-6" d="m303 158.89 4.06.91a20.44 20.44 0 0 0-1.23 2.37l-4-.91a20.37 20.37 0 0 1 1.22-2.37" transform="translate(-296.43 -121.18)"/><path class="cls-7" d="m301.73 161.26 4 .91a21.81 21.81 0 0 0-.84 2.26l-4.06-.91a19.78 19.78 0 0 1 .85-2.26" transform="translate(-296.43 -121.18)"/><path class="cls-8" d="m300.88 163.52 4.06.91a20 20 0 0 0-.57 2.28l-4.06-.91a22.34 22.34 0 0 1 .57-2.28" transform="translate(-296.43 -121.18)"/><path class="cls-9" d="m300.31 165.8 4.06.91a19.22 19.22 0 0 0-.32 2.4l-4.05-.91a21.29 21.29 0 0 1 .32-2.4" transform="translate(-296.43 -121.18)"/><path class="cls-10" d="m300 168.2 4.06.91a21 21 0 0 0 0 2.63l-4.06-.9a21.09 21.09 0 0 1 0-2.64" transform="translate(-296.43 -121.18)"/><path class="cls-11" d="m300 170.84 4.06.9c0 .6.08 1.19.16 1.79l-4.05-.91c-.08-.6-.14-1.19-.17-1.78" transform="translate(-296.43 -121.18)"/></g></g><path class="cls-12" d="m3.68 51.44 4.06.91 22.24 167.1-4.05-.91L3.68 51.44z"/><g class="cls-2"><g class="cls-2" style="clip-path:url(#clip-path-2)"><path class="cls-11" d="m322.36 339.72 4.06.91c.06.5.15 1 .25 1.48l-4.06-.91c-.1-.48-.19-1-.25-1.48" transform="translate(-296.43 -121.18)"/><path class="cls-14" d="m322.61 341.2 4.06.91a20.87 20.87 0 0 0 6.87 11.69l-4.06-.91a20.84 20.84 0 0 1-6.87-11.69" transform="translate(-296.43 -121.18)"/><path class="cls-11" d="m329.48 352.89 4.06.91a19.9 19.9 0 0 0 2.63 1.92l-4.06-.91a19.9 19.9 0 0 1-2.63-1.92" transform="translate(-296.43 -121.18)"/><path class="cls-10" d="m332.11 354.81 4.06.91a20.37 20.37 0 0 0 2.35 1.26l-4.06-.91a20.37 20.37 0 0 1-2.35-1.26" transform="translate(-296.43 -121.18)"/><path class="cls-9" d="m334.46 356.07 4.06.91c.72.32 1.47.61 2.23.86l-4.05-.91a20.74 20.74 0 0 1-2.24-.86" transform="translate(-296.43 -121.18)"/><path class="cls-8" d="m336.7 356.93 4.05.91q.87.27 1.77.48l-4.06-.91c-.6-.14-1.19-.3-1.76-.48" transform="translate(-296.43 -121.18)"/></g></g><g class="cls-2"><g class="cls-2" style="clip-path:url(#clip-path-3)"><path class="cls-4" d="m346 358.69 4 .91a21.64 21.64 0 0 1-7.72-.31l-4.06-.91a21.69 21.69 0 0 0 7.73.31" transform="translate(-296.43 -121.18)"/></g></g><path class="cls-16" d="m209.68 1.21 4.06.91L25.66 28.55l-4.06-.91L209.68 1.21z"/><g class="cls-2"><g class="cls-2" style="clip-path:url(#clip-path-4)"><path class="cls-4" d="m513.49 122.69 4.06.91a20.68 20.68 0 0 0-7.38-.3l-4.05-.91a20.63 20.63 0 0 1 7.37.3" transform="translate(-296.43 -121.18)"/></g></g><g class="cls-2"><g class="cls-2" style="clip-path:url(#clip-path-5)"><path class="cls-8" d="m513.7 121.7 4.06.91c.62.14 1.24.31 1.84.5l-4.05-.91c-.61-.19-1.22-.36-1.85-.5" transform="translate(-296.43 -121.18)"/><path class="cls-9" d="m515.55 122.2 4.05.91a23.73 23.73 0 0 1 2.35.9l-4.06-.9a21.38 21.38 0 0 0-2.34-.91" transform="translate(-296.43 -121.18)"/><path class="cls-10" d="m517.89 123.11 4.06.9a23.12 23.12 0 0 1 2.45 1.32l-4-.91a20.69 20.69 0 0 0-2.46-1.31" transform="translate(-296.43 -121.18)"/><path class="cls-11" d="m520.35 124.42 4 .91a21.61 21.61 0 0 1 2.76 2l-4.06-.91a20.83 20.83 0 0 0-2.75-2" transform="translate(-296.43 -121.18)"/><path class="cls-14" d="m523.1 126.43 4.06.91a21.9 21.9 0 0 1 7.2 12.25l-4.06-.91a21.9 21.9 0 0 0-7.2-12.25" transform="translate(-296.43 -121.18)"/><path class="cls-11" d="m530.3 138.68 4.06.91c.1.51.19 1 .26 1.55l-4.06-.91c-.07-.52-.15-1-.26-1.55" transform="translate(-296.43 -121.18)"/></g></g><path class="cls-16" d="m237.62 211.07 4.06.91-188.09 26.43-4.06-.91 188.09-26.43z"/><path class="cls-12" d="m234.13 19.05 4.06.91 22.24 167.1-4.06-.91-22.24-167.1z"/><path d="M506 121.4a21.8 21.8 0 0 1 24.58 18.83l22.25 167.11a22.19 22.19 0 0 1-18.76 24.91L346 358.69a21.81 21.81 0 0 1-24.59-18.83l-22.24-167.1a22.2 22.2 0 0 1 18.76-24.93Zm45.85 186.07-22.25-167.1a20.82 20.82 0 0 0-23.46-18L318 148.83a21.18 21.18 0 0 0-17.91 23.79l22.24 167.1a20.83 20.83 0 0 0 23.47 18l188.09-26.44a21.2 21.2 0 0 0 17.91-23.79" transform="translate(-296.43 -121.18)" style="fill:#d5b9a1"/><g class="cls-2"><g class="cls-2" style="clip-path:url(#clip-path-6)"><path class="cls-11" d="m552.81 307.34 4.05.91c.09.62.14 1.25.17 1.87l-4-.91c0-.62-.09-1.25-.17-1.87" transform="translate(-296.43 -121.18)"/><path class="cls-10" d="m553 309.21 4 .91a21.15 21.15 0 0 1 0 2.76l-4.06-.91a23.05 23.05 0 0 0 0-2.76" transform="translate(-296.43 -121.18)"/><path class="cls-9" d="m552.94 312 4.06.91a23 23 0 0 1-.34 2.51l-4.06-.91a23 23 0 0 0 .34-2.51" transform="translate(-296.43 -121.18)"/><path class="cls-8" d="m552.6 314.48 4.06.91a23.86 23.86 0 0 1-.6 2.39l-4.06-.91a19.43 19.43 0 0 0 .6-2.39" transform="translate(-296.43 -121.18)"/><path class="cls-7" d="m552 316.87 4.06.91a24 24 0 0 1-.88 2.37l-4.06-.91a21.69 21.69 0 0 0 .88-2.37" transform="translate(-296.43 -121.18)"/><path class="cls-6" d="m551.12 319.24 4.06.91a23.32 23.32 0 0 1-1.29 2.48l-4-.91a25.25 25.25 0 0 0 1.28-2.48" transform="translate(-296.43 -121.18)"/><path class="cls-5" d="m549.84 321.72 4 .91a22.27 22.27 0 0 1-1.95 2.77l-4.06-.91a23.45 23.45 0 0 0 2-2.77" transform="translate(-296.43 -121.18)"/><path class="cls-4" d="m547.88 324.49 4.06.91a21.86 21.86 0 0 1-13.83 7.76l-4.06-.91a21.83 21.83 0 0 0 13.83-7.76" transform="translate(-296.43 -121.18)"/></g></g></g><g class="cls-2"><path class="cls-21" d="m339.39 358.8-4.06-.91a20.82 20.82 0 0 0 7.57.3l4.05.91a20.77 20.77 0 0 1-7.56-.3Zm171.22-236.61 4.06.91a21.39 21.39 0 0 1 16.46 18.11l-4.06-.91a21.39 21.39 0 0 0-16.46-18.11Z" transform="translate(-296.43 -121.18)"/><path class="cls-21" d="m234.55 210.58 4.05.91-188.08 26.43-4.06-.91 188.09-26.43zm-3.91-191.47 4.06.91 22.24 167.11-4.06-.91-22.24-167.11z"/><path class="cls-21" d="m549.31 307.4 4.06.91A21.67 21.67 0 0 1 535 332.67l-4.06-.91a21.66 21.66 0 0 0 18.37-24.36Z" transform="translate(-296.43 -121.18)"/><path class="cls-21" d="M503 121.89a21.29 21.29 0 0 1 24 18.41l22.24 167.1A21.66 21.66 0 0 1 531 331.76l-188.1 26.43a21.29 21.29 0 0 1-24-18.4l-22.25-167.1A21.68 21.68 0 0 1 315 148.33Z" transform="translate(-296.43 -121.18)"/></g><g id="Layer_8" data-name="Layer 8"><path class="cls-22" d="m350.25 284.78-6.36-6.28a14.93 14.93 0 0 1-4.17-7.32 31 31 0 0 1-1.53-10.87c.73-1-.4-2.21.34-3.22.85-7.19 4.53-13 9.31-18.07 6-6.31 12.43-12.18 20.75-15.43 2 1.38 1.57 3.52 1.75 5.48-.76 3.33-3.78 4.46-6.14 6.2-5.91 4.36-11.22 9.22-14.62 15.91-6.41 12.6-.79 24.17 9.5 30.6 12.52 7.83 26.51 11 41.17 11.45 1.18 0 2.3.41 3.48.45a8.89 8.89 0 0 1 2.3.82c4.64 3.21 4.64 3.21 5.91 5.77-.63 1.83-2.34 1.67-3.78 2-2.53.68-5.11-.17-7.65.21a5.53 5.53 0 0 1-1.15 0 10.93 10.93 0 0 0-3.33-.19 6.32 6.32 0 0 1-1.15-.12c-9.43-1.24-18.78-2.82-27.71-6.33a58.2 58.2 0 0 1-9.88-4.65 25.41 25.41 0 0 0-3.11-2.22c-.3-.2-.6-.4-.89-.62-1.22-1.02-2.71-1.8-3.04-3.57Zm155.93-49.7c2.93 7.54 2.95 15-.85 22.35-.59.79-.88 1.88-2.27 2.1A7.66 7.66 0 0 1 498 256a3.27 3.27 0 0 1-.23-1.75c4-9.14 1.15-18.07-5.89-24.59-4.81-4.46-11-6.63-16.25-10.21l-1-6.9c3.26-.48 5.52 1.89 8.35 2.07 5.45 3.21 11.27 5.79 15.86 10.38 3.03 3.06 5.06 6.62 7.34 10.08Z" transform="translate(-296.43 -121.18)"/><path d="M480.67 258.27c1.62-2.23.14-4.48 0-6.69-.27-3.47-.87-6.92-1.33-10.38a2.3 2.3 0 0 1 2.56.34c5.52 4 11.29 7.75 16.32 12.42a4.16 4.16 0 0 1-.21 1.22 37 37 0 0 1-11.39 14.71c-11.65 9.51-25.35 15-39.69 19.06-11 3.15-22.52 3.72-33.8 5.42a32.39 32.39 0 0 1-9-.26c-1.76-1-3.91.8-5.58-.73.23-.86-.18-1.23-.95-1.73-7.58-4.93-14.52-10.72-21.89-15.95a3.22 3.22 0 0 1-1.71-2.45c.13-1 .91-1.17 1.73-1.26 33-4.46 65.87-9.25 98.81-13.79 2-.28 4.1-1.11 6.13.07Z" transform="translate(-296.43 -121.18)" style="fill:#e8d5d5"/><path d="M497.64 253.74c-2.82-.09-4.36-2.28-6.38-3.64-4.25-2.85-8.38-5.86-12.56-8.81l-2.86-20a2.43 2.43 0 0 1 2.65-.18c7.78 3.25 14.81 7.4 19 14.85a19.79 19.79 0 0 1 2 15c-.25 1.04-.44 2.31-1.85 2.78Z" transform="translate(-296.43 -121.18)" style="fill:#f6e7e6"/><path d="M459 293.15a195.67 195.67 0 0 1-38.89 7.85c-4 .39-8 .61-12 .9-.33-.08-.47-.21-.42-.4s.13-.3.23-.31l3.68-.83c-2.28-1.95-4.17-3.58-6.06-5.21 1.21-1.62 3.08-1.3 4.67-1.34 24.74-.55 48.13-6 69.39-19.1a54.35 54.35 0 0 0 16.68-16.19c.65-1 .87-2.6 2.58-2.6l4.44 2.77c1.05.12 1.35-1 2.16-1.29-2.77 7.41-8.24 12.71-14 17.69-9.59 8.23-20.9 13.36-32.46 18.06Z" transform="translate(-296.43 -121.18)" style="fill:#e7d4d4"/><path d="M498.87 255.93c-6.93 12.14-17.65 19.77-30 25.67-14.81 7.08-30.47 11-46.69 12.73-5.53.6-11.12.57-16.67.83l-1.68-.52c-.55-.3-1.09-.61-1-1.38a1 1 0 0 1 1.56-.33c21.4.13 42.15-3.26 61.8-11.94 13-5.76 24.46-13.65 31.65-26.5l.79-.11c.11.51.18 1.03.24 1.55Z" transform="translate(-296.43 -121.18)" style="fill:#d1c2c2"/><path d="M404.44 292.93c-1.26.21-1 .93-.57 1.71-13.66-.24-26.87-2.54-39.31-8.46-6.46-3.07-12.29-7-15.83-13.38-5.5-9.89-3.11-21.46 5.46-30.36 4.65-4.83 11.68-9.27 16.81-13.44.14 1-.14 3 0 4-1.32 2.1-4.75 2.73-6.58 4.18-4.51 3.59-8.73 7.44-11.81 12.39-8.05 12.93-3.29 24.15 9.15 31.64 10.26 6.17 21.66 8.84 33.47 9.94 1.62.16 3.5-.29 4.45 1.68 1.56 1.63 3.21-1.53 4.76.1Z" transform="translate(-296.43 -121.18)" style="fill:#ded3d3"/><path d="M514.15 252.16c-.32-2.3-.65-4.6-1-6.9-1.09-1-.18-2.78-1.34-3.79-.85-1.14-1.18-2.59-2.15-3.66-1.52-.45-1.18-3.29-3.49-2.73-.93 1.19-.57 2.48-.25 3.73a27.89 27.89 0 0 1-1.48 17.95 10.77 10.77 0 0 1-1.43 3.17c-6.87 11.08-16.9 18.5-28.12 24.59-5.58 3-11.57 5.13-17.23 7.94a7.37 7.37 0 0 0-3.87.52 157.87 157.87 0 0 1-23.63 5.13c-7.32.95-14.74 1.34-21.88 3.49H408c0-.14-.07-.28-.11-.42l-8.58.31c-1-.76-2.13-.43-3.23-.29a1.64 1.64 0 0 0-.66 0 18.46 18.46 0 0 0-3-.78A97.84 97.84 0 0 1 357.3 290a4.3 4.3 0 0 0-3.4-2l-3.74-3.31c-.61 2.55 1.37 3.31 3 4.32.36 1.55 1.73 2.16 2.81 3.07 5.63 4.71 12.44 7.27 18.91 10.45 5.22.84 10.13 3.14 15.49 3.37 1 .86 2.12.43 3.21.43.72.68 1.57.48 2.41.36 2 1.17 4.24 1 6.45.74a5.37 5.37 0 0 0 .11.7 52.2 52.2 0 0 0 8.75.31l43.28-6c1.38-.19 2.91-.08 3.95-1.33a31.57 31.57 0 0 0 4.87-1.14c7.15-2.24 13.74-5.75 20.53-8.8a6 6 0 0 1 1.11-1.08c10.44-5.91 19.21-13.59 25.41-24a24.76 24.76 0 0 0 1.26-2.59c.68-2.46 1.37-4.92 2.05-7.38 1.03-1.21-.39-2.67.39-3.96Z" transform="translate(-296.43 -121.18)" style="fill:#d6b097"/><path d="M497.78 253.72c4.7-12-2.18-22.57-11.29-28.08a33.14 33.14 0 0 0-9.88-4.5l-.18-1.78c10.31 2.72 22.52 11.45 24.35 23.14.62 3.95.91 8.33-2.1 11.88a.49.49 0 0 1-.79.11Z" transform="translate(-296.43 -121.18)" style="fill:#ded4d4"/><path d="M469.22 194.72c-.87-.12-1.85.2-2.54-.64-1.48-5.68-1.48-5.68-8.75-6.6-.19-3-2.47-4.24-4.9-5.37-.85-3.44-2.89-5.52-6.46-5.84-.13-.76-.25-1.52-.38-2.28a7.41 7.41 0 0 0-3.63-2.65 7.69 7.69 0 0 0-5.37 2.83c-2.56 2.94-5.18 5.79-8.61 7.75L398 202.21c-.25.19-.51.36-.77.54l-1.26.83a29.16 29.16 0 0 0-5.88 4.37l-8.74 5.16-12.23 8.83c1.8 1.65 3.92 1.07 6 .79q46.65-6.51 93.29-13.09a19.93 19.93 0 0 0 4.17-1A3.83 3.83 0 0 0 474 208c.34-2 .81-4.08 1-6.14.36-4.36-1.47-6.56-5.78-7.14Zm-26.53-15.41c.33-.92 1.85-1.1 2.95-1.91-1.08.83-2.55 1.07-2.95 1.91Z" transform="translate(-296.43 -121.18)" style="fill:#f09961"/><path d="M446.57 176.27c-.46 3.24-4.1 3.53-5.57 5.83.31-3.37 2.7-4.82 5.57-5.83Z" transform="translate(-296.43 -121.18)" style="fill:#e58340"/><path d="M452.56 182.76c-3.29.85-4.32 3.2-5.9 5.39-.46-4.07 1.44-5.98 5.9-5.39Zm7.59 17.36c.35-3 2-4.68 5.67-5-1.76 2.42-4.28 3.06-5.67 5Z" transform="translate(-296.43 -121.18)" style="fill:#e3803d"/><path d="M457.48 188.74a11.67 11.67 0 0 1-3.47 5.57c-.41-2.7.17-3.62 3.47-5.57Z" transform="translate(-296.43 -121.18)" style="fill:#e4813e"/><path d="M474 207.94c-1.46-.83-3-.17-4.55 0q-50.16 7-100.32 14.07c-.72 2-.11 3.83.36 5.69a1.3 1.3 0 0 0 1.05-.27 3.66 3.66 0 0 1 1.89-1.25 18 18 0 0 1 5.3-1.22l55.27-7.72q16.16-2.28 32.31-4.54c2.13-.3 4.29-.63 5.06 1.58a.75.75 0 0 0 0 .16c-.76 1.38-.27 2.72-.09 4.06 1.32 9.57 2.68 19.13 4 28.69.2 1.46.57 2.91-.26 4.38a3.9 3.9 0 0 1-1.83 1.35c-2.92.16-5.74 1-8.62 1.35l-5 .69a166.36 166.36 0 0 0-21.57 3.09c-7.39 1.12-14.88 1.42-22.22 2.81-4.9.93-9.79 1.83-14.75 2.31-8.07.79-16.15 1.45-23.82 4.19l-.53-.26h-.59c-2 1.64-1.49 3 .36 4.24a5.18 5.18 0 0 0 3 .27L481.5 257l-6.75-49.15a3.51 3.51 0 0 1-.75.09Zm-.38 20.26h.11l-.08.16Zm-78.38 38.68a4.74 4.74 0 0 0 .5-.26 2 2 0 0 0 .26.18Z" transform="translate(-296.43 -121.18)" style="fill:#c75f1c"/><path class="cls-35" d="M475.25 250q-2.44-17.88-5-35.75c-.27-.76-.08-1.7-1.46-2.27l-28.37 4c-.45-.39-1-.21-1.52-.16q-32.42 4.56-64.9 9.18c-1.35.19-2.9-.07-4 1l.18 1.45-.51.3 3.43 25.37 1.19-1.29v.11c4.89.91 8.88 2.55 8.93 7.35 0 3.56-2.16 5.89-7.47 7.84a1 1 0 0 0 .11.41L437 259l21.71-3 4.66-.66 9.31-1.29 2.32-.35c1.11-1.24.41-2.48.25-3.7Zm-50.77-27c.55-.72 1.46-1.33 1.67-2.16 3-.28 6-.18 9-.63a1.94 1.94 0 0 1 .2-.49.54.54 0 0 1 .1.16 60.08 60.08 0 0 1 3.68 9.53l-.26-.13c-1.29.09-2 .89-2.93 1.52-3.88 2.73-7.41 2.94-10.72.66-2.91-1.99-3.22-5.31-.74-8.46ZM377 240.46c-.35.17-.73.32-1.12.47l-3.34-12.67a10.55 10.55 0 0 0 3.92-.33l.18-.06a8 8 0 0 0 1.68.95c5.68 3.34 5.11 8.54-1.32 11.64Zm31.08-6.56a7.94 7.94 0 0 1-9.09 2.71c-3.13-1-4.77-2.94-4.76-5.73s2.09-5 5.49-6.12a24.13 24.13 0 0 0 3.55-1l.57-.05h.52c.47 1.06 2 1.41 2.87 2.16a5.49 5.49 0 0 1 .84 8.03Zm28.69 24.1v.14c-1.6-.74-3.48-.23-5.2-.49-4.72-.71-7.29-4.17-5.87-8 1.3-3.48 6-5.37 10.4-4.15a8.71 8.71 0 0 0 3.68.73l.17-.05c1.05 4.22.7 8.25-3.18 11.82Zm13.74-14.82c-3 .5-6.18.35-9 1.77 0-1-1-1.49-1.69-2.13-3.2-3-3.42-4.72-1.07-8.48a6.64 6.64 0 0 0 1.11-2 1.45 1.45 0 0 1 0-.29c1.41.39 2.84-.16 4.27-.28 5.75-.49 9.41 2.72 8.33 7.37-.22.93-.61 1.85-.11 2.75l-1.35 1.43a3.06 3.06 0 0 0-.49-.12Zm18.14 4.65a4.36 4.36 0 0 0-.14.88c-2.24 1.67-3.73 3.85-5.59 5.77a3.51 3.51 0 0 0-4 .51 3.41 3.41 0 0 0-2.11-1.55 6 6 0 0 1-4.28-5.64 15.31 15.31 0 0 0-.32-3.38 1.4 1.4 0 0 0-.09-.17l1.65-1.68a3.85 3.85 0 0 0 .59 0 24.61 24.61 0 0 0 6.18-2.22c.22-.12.42-.25.62-.38a20.28 20.28 0 0 1 5.6 2.08 2.58 2.58 0 0 0 .35.51 2.74 2.74 0 0 0 .83.53c.39 1 .85 2 1.14 3.11a3.77 3.77 0 0 0-.43 1.65Zm-2.17-23.26-.22.32c-1.86.09-2.47 1.5-3.59 2.36-3.65 2.77-8.19 2.63-11.19-.4-2.67-2.69-1.62-7.11 2.18-9.21s8.44-1.2 10.63 2c.62.9.8 2 1.35 2.88.29.48.51 1.15 1.15 1.22a1.33 1.33 0 0 0-.37.76 1 1 0 0 0 .06.09Z" transform="translate(-296.43 -121.18)"/><path d="M374.67 227.72a7.29 7.29 0 0 1 5.85 1.8c5.36 5.18 1.45 11.85-8.06 13.64-.52 0-.87-.1-1-.54-.68-4.88-1.21-9.32-1.9-14.21 1.93-.33 5.11-.69 5.11-.69Z" transform="translate(-296.43 -121.18)" style="fill:#e84335"/><path class="cls-37" d="M435.28 219.84c3.73 2.43 4.88 5.62 3.67 9.52-3.07 3.2-6.35 5.89-11.81 4.38-6.13-1.69-7.88-7.88-3.36-12 .71-.64 1.43-1.26 2.14-1.88 3.16-.59 6.31-1.1 9.36-.02ZM413.3 254.3c.56 4.11-2.93 7.81-8 8.49s-9.29-2-9.9-6.15 2.81-8 7.82-8.73 9.49 2.09 10.08 6.39Zm26.45-8.43c3.66 5.34 3.06 7.77-3.05 12.43-7.68 1.27-11.78-.59-12.69-5.52-.59-3.17.89-5.53 4-7.45a9.72 9.72 0 0 1 9.45-.5c.77.33 1.54.7 2.29 1.04Zm-35.7-22.93c3.26 1.43 6.33 2.88 6.61 6.47.29 3.76-3.15 8-7.46 8.76-4.76.84-9.83-2.14-10.49-6.16s2.58-7.65 7.49-8.55c1.27-.24 2.57-.34 3.86-.5Zm-16.16 15.55c4.84-.66 9.8 2.18 10.32 5.92s-3.51 7.91-8.29 8.53c-5.17.68-9.53-1.91-10.08-6s2.86-7.74 8.05-8.45Zm62.57 5.21a15.73 15.73 0 0 1-9.24 1.34c-6.73-3.56-7.32-7.87-1.8-13.09 4-1.91 8-2.24 11.46.08 3.79 2.52 4 5.86 1.68 9.5a2.74 2.74 0 0 1-2.1 2.17Z" transform="translate(-296.43 -121.18)"/><path class="cls-37" d="M407.63 243.18c-.65-4.35 2.5-7.8 7.82-8.56s9.52 1.83 10.09 6-3 7.76-8.2 8.5-9.08-1.76-9.71-5.94Zm55.47 11.47-4.6.61c-6.94-2.34-8.54-4.69-7.06-10.41.62-.57.35-1.38.93-2s1.41-.41 1.89-.93a14.8 14.8 0 0 1 6-2.1c3.89-1.32 5.55.94 7.48 2.78 2.37 1.39 2 3.42 1.62 5.47a11.42 11.42 0 0 1-6.26 6.58Zm3.57-31a.79.79 0 0 0 0 .48c-.12.31-.06.7-.59.85-3.54 4.8-7.05 6.3-11.66 5s-6.83-4.52-5.71-8.6c1-3.5 4.86-6 9.53-6a7.92 7.92 0 0 1 8.18 6.46c.07.57.15 1.16.25 1.81Z" transform="translate(-296.43 -121.18)"/><path d="M375.21 250.85a30 30 0 0 1 4.51 1.57c3.89 1.86 5.53 5.66 4.09 9.43-1.33 3.47-4.56 5.54-8.84 5.67a2.59 2.59 0 0 1-1.1-.69 2.86 2.86 0 0 1-.78-1.39c-1.38-8.4-2.6-12.12-1.93-13 .84-1.14 1.7-2.27 4.05-1.59Z" transform="translate(-296.43 -121.18)" style="fill:#e74336"/><path d="M399.52 292.83a102.48 102.48 0 0 1-23.38-3.94c-8.82-2.66-17.23-6.22-23.49-13.24-4.73-5.32-7-11.68-4.77-18.84C351.4 245.43 360.4 238 371 233c.59 3.9 0 7.8.59 11.68 1.1 7.44 2.19 14.86 3.31 22.34.17 1.75.34 3.51.5 5.26 0 1.11.89 1.42 1.62 2q10.98 8.07 21.78 16.32c.54.4 2.68.81.72 2.23Z" transform="translate(-296.43 -121.18)" style="fill:#f7e9e9"/><path d="M380.15 281.51a6.32 6.32 0 0 1-1.43.61 1.68 1.68 0 0 1-1.74-.75 1.52 1.52 0 0 1 1.51-2.07c1.34-.07 1.61.95 1.66 2.21Z" transform="translate(-296.43 -121.18)" style="fill:#e19565"/><path d="M369.66 275.51c.16-.81.56-1.21 1.3-1.08.52.09.92.37.78 1.33-.65.66-1.35.79-2.08-.25Z" transform="translate(-296.43 -121.18)" style="fill:#dd7937"/><path d="M484.72 234.28c-.07 1 0 2.16-1.65 2-.86-1.77.45-1.86 1.59-2.08Z" transform="translate(-296.43 -121.18)" style="fill:#d06821"/><path d="M491 239.05c-1 1.63-1.81 1.58-2.76.29.59-1.42 1.39-1.51 2.76-.29Z" transform="translate(-296.43 -121.18)" style="fill:#e28140"/><path d="M484.72 234.28c1.35.9 1.19 2 .09 2.83-1.29.95-2.78 1.51-4.21-.38 0-2.85 1.27-3.77 4.06-2.5Z" transform="translate(-296.43 -121.18)" style="fill:#ea8845"/><path class="cls-22" d="M436.94 197.38c2.31 1.9 2.52 4.06.79 6.46a3.37 3.37 0 0 0-1.56 1.56c-8.74 4.4-18.13 4.78-27.63 4.39-.77 0-1.54-.1-2.32-.15-2.06-.46-4.1-1-4.43-3.57a46.39 46.39 0 0 1-.44-4.7c.12-1.21.94-2.07 1.53-3.05h.09c2.63-1.53 4.7 1.6 6.92.79-2.15-.18-4.57-.51-6.36-2.49-.06-.25-.12-.5-.19-.75a3 3 0 0 1-.44-3.11 3.86 3.86 0 0 1 1.89-3.41c1.52.36 1.42-1.09 2-1.78l.87-.23a6.28 6.28 0 0 0 2-2.64c2.48-2.76 4.91-5.58 8.62-7.32 1.79 2.7.51 6.58 3.43 8.67.88.76 1.6-.32 2.42-.2l7.26 1.28c3.21 1.35 5.84 3.1 5 7.24-.64.85-.19 2.07-1.52 3.42-2.22 1.74-5 3.94-8.31 4.32a16.55 16.55 0 0 0 6.34-2.87c1.1-.85 2.24-2.24 4.04-1.86Z" transform="translate(-296.43 -121.18)"/><path d="M400.1 212.15c-.08-1.59 1-1.84 2.21-1.82s1.71.81 1.58 2Z" transform="translate(-296.43 -121.18)" style="fill:#a78f98"/><path d="M406.79 187.59c.15 1.3 1 2.56.32 4-1.53 0-1.52-1.53-2.32-2.21a2.13 2.13 0 0 1 2-1.79Z" transform="translate(-296.43 -121.18)" style="fill:#accca6"/><path d="m436.17 205.4-1.26-1.7c1.12-1 1.93 0 2.82.14.08 1.16-.53 1.54-1.56 1.56Z" transform="translate(-296.43 -121.18)" style="fill:#8dc090"/><path d="M422.39 193.64a2.41 2.41 0 0 1 2.7-2.09c-.56 1.83-.56 1.83-2.7 2.09Z" transform="translate(-296.43 -121.18)" style="fill:#8ec598"/><path d="M413.82 195.3c1.89.09 3 .42 3.62 1.73-1.74.25-1.74.25-3.62-1.73Z" transform="translate(-296.43 -121.18)" style="fill:#f6cf76"/><path d="M416.87 205.36c1.75-.72 2.69-.13 3.76.84-1.63 1.22-2.63.69-3.76-.84Z" transform="translate(-296.43 -121.18)" style="fill:#ef9d96"/><path d="M431.19 197.29c-1.34.66-2.08-.2-2.82-1.11.43-1.28 1.2-.62 1.81-.34s1.18.55 1.01 1.45Z" transform="translate(-296.43 -121.18)" style="fill:#8faeee"/><path d="M409 205.87c.35-.7.71-1.37 1.68-.87.33 1-.16 1.37-.95 1.59l-.39-.11Z" transform="translate(-296.43 -121.18)" style="fill:#f7ce71"/><path d="M436.94 197.38c-5.53 4.72-9 6-14.75 5.25 5.51-1.48 11-2.94 14.21-8.24Zm-33.41-.74a82.9 82.9 0 0 0 9.87 2.77c-3.66 1.08-7-.2-10.43-1.07.19-.56.38-1.13.56-1.7Z" transform="translate(-296.43 -121.18)" style="fill:#ecdfde"/><path d="M424.1 185.87c-.77.82-1.29 1.93-2.51 2.26-1-.76 0-1.39.09-2.06l1.46-1.12c.75-.1.78.48.96.92Z" transform="translate(-296.43 -121.18)" style="fill:#f08e82"/><path class="cls-35" d="M475.25 250q-2.44-17.88-5-35.75c-.27-.76-.08-1.7-1.46-2.27l-28.37 4c-.45-.39-1-.21-1.52-.16q-32.42 4.56-64.9 9.18c-1.35.19-2.9-.07-4 1l.18 1.45-.51.3 3.43 25.37v-.06l1.94 14.12s-.08-.16.83.36L437 259l21.71-3 4.66-.66 9.31-1.29 2.32-.35c1.11-1.24.41-2.48.25-3.7Zm-39.06 7.92.77-.1-.19.18v.14a3.89 3.89 0 0 0-.58-.2Zm22.63-3.12.51-.08-.33.28a1.37 1.37 0 0 0-.18-.18Zm3.61-.5.77-.11-.28.3a4.94 4.94 0 0 0-.49-.17Z" transform="translate(-296.43 -121.18)"/><path class="cls-37" d="M398 255.09a7.79 7.79 0 0 1 .07.85 2.94 2.94 0 0 1-.05.57.65.65 0 0 1-.18.33.5.5 0 0 1-.27.14l-11.32 1.59a1.44 1.44 0 0 1-1-.2 1.41 1.41 0 0 1-.55-1.05l-2.76-19.64a1.41 1.41 0 0 1 .24-1.16 1.5 1.5 0 0 1 .92-.48l11.24-1.58a.56.56 0 0 1 .29 0 .71.71 0 0 1 .26.28 2.48 2.48 0 0 1 .2.54 7 7 0 0 1 .17.85 7.3 7.3 0 0 1 .07.83 2.27 2.27 0 0 1-.05.57.83.83 0 0 1-.17.34.43.43 0 0 1-.26.13l-8 1.13.77 5.5 6.8-1a.51.51 0 0 1 .3.06.62.62 0 0 1 .26.27 1.74 1.74 0 0 1 .21.52 7.47 7.47 0 0 1 .16.82 5.66 5.66 0 0 1 .07.84 1.77 1.77 0 0 1 0 .55.66.66 0 0 1-.18.32.47.47 0 0 1-.27.12l-6.81 1 .89 6.35 8.11-1.14a.51.51 0 0 1 .3.06.7.7 0 0 1 .27.27 2.58 2.58 0 0 1 .2.53 7.68 7.68 0 0 1 .07.89Zm16.15-14.27a3.15 3.15 0 0 1 0 1.33.63.63 0 0 1-.51.46l-13.29 1.87a.65.65 0 0 1-.62-.3 3.19 3.19 0 0 1-.38-1.28 3.43 3.43 0 0 1 0-1.3.62.62 0 0 1 .53-.46l13.29-1.87a.6.6 0 0 1 .63.3 3.12 3.12 0 0 1 .35 1.25Zm1 7a3.12 3.12 0 0 1 0 1.33.66.66 0 0 1-.52.45l-13.28 1.86a.63.63 0 0 1-.62-.28 3 3 0 0 1-.38-1.28 3.43 3.43 0 0 1 0-1.3.63.63 0 0 1 .53-.48l13.28-1.86a.61.61 0 0 1 .64.3 3.29 3.29 0 0 1 .34 1.29Zm29.22 1.97a.56.56 0 0 1-.06.32.8.8 0 0 1-.32.27 2.71 2.71 0 0 1-.65.22 9.47 9.47 0 0 1-1 .2c-.44.06-.8.09-1.09.1a2.79 2.79 0 0 1-.68 0 .71.71 0 0 1-.38-.17.47.47 0 0 1-.14-.29l-1.3-9.21a6.32 6.32 0 0 0-.35-1.41 3.38 3.38 0 0 0-.6-1 2.13 2.13 0 0 0-.87-.6 2.24 2.24 0 0 0-1.14-.1 2.65 2.65 0 0 0-1.5.83 11.25 11.25 0 0 0-1.49 2l1.45 10.32a.44.44 0 0 1-.06.32.77.77 0 0 1-.33.27 3.17 3.17 0 0 1-.65.23c-.27.06-.62.13-1 .19a10.47 10.47 0 0 1-1.06.1 2.77 2.77 0 0 1-.69 0 .79.79 0 0 1-.39-.16.54.54 0 0 1-.15-.29l-1.29-9.21a6.92 6.92 0 0 0-.35-1.41 3.6 3.6 0 0 0-.6-1 2.12 2.12 0 0 0-.87-.61 2.33 2.33 0 0 0-1.13-.09 2.61 2.61 0 0 0-1.51.83 10.07 10.07 0 0 0-1.48 2l1.45 10.32a.44.44 0 0 1-.06.32.81.81 0 0 1-.32.27 3.36 3.36 0 0 1-.66.22 9.79 9.79 0 0 1-1.05.19c-.43.06-.79.1-1.07.11a2.84 2.84 0 0 1-.69 0 .83.83 0 0 1-.39-.16.47.47 0 0 1-.14-.29l-2.19-15.53a.57.57 0 0 1 0-.32.65.65 0 0 1 .28-.26 2.29 2.29 0 0 1 .57-.21 7.92 7.92 0 0 1 .89-.17c.37-.05.68-.08.92-.09a2.34 2.34 0 0 1 .59.05.66.66 0 0 1 .32.18.59.59 0 0 1 .13.29l.25 1.8a10.46 10.46 0 0 1 2.27-2.45 5.65 5.65 0 0 1 2.58-1.08 6.94 6.94 0 0 1 1.75 0 5.07 5.07 0 0 1 1.45.38 4.56 4.56 0 0 1 1.16.76 5.11 5.11 0 0 1 .89 1.06 12.78 12.78 0 0 1 1.19-1.48 7.82 7.82 0 0 1 1.2-1.07 6.23 6.23 0 0 1 1.23-.68 5.42 5.42 0 0 1 1.31-.36 6 6 0 0 1 2.68.16 4.61 4.61 0 0 1 1.92 1.18 5.57 5.57 0 0 1 1.22 2 11 11 0 0 1 .64 2.5Zm15.7-4.72c0 .3.07.55.08.76a4.48 4.48 0 0 1 0 .52 2.6 2.6 0 0 1 0 .36 1.36 1.36 0 0 1-.23.36 3.52 3.52 0 0 1-.64.59 6.91 6.91 0 0 1-1.08.68 9.31 9.31 0 0 1-2.89.92 8.51 8.51 0 0 1-3.25-.11 6 6 0 0 1-2.56-1.32 7.38 7.38 0 0 1-1.79-2.46 12.27 12.27 0 0 1-1-3.52 12.52 12.52 0 0 1 0-4.11 7.7 7.7 0 0 1 1.24-3 6.62 6.62 0 0 1 2.24-2 9 9 0 0 1 3.05-1 8.15 8.15 0 0 1 1.39-.07 7.7 7.7 0 0 1 1.3.16 6.6 6.6 0 0 1 1.11.32 3 3 0 0 1 .71.36 2.61 2.61 0 0 1 .32.28 1.26 1.26 0 0 1 .17.33 4.72 4.72 0 0 1 .14.5 7.35 7.35 0 0 1 .13.74 4.4 4.4 0 0 1 0 1.44c-.08.29-.21.45-.4.47a1.06 1.06 0 0 1-.66-.15c-.24-.13-.53-.28-.86-.43a5.25 5.25 0 0 0-1.16-.39 4.29 4.29 0 0 0-1.53 0 3 3 0 0 0-2.42 1.68 6.92 6.92 0 0 0-.37 4 9.92 9.92 0 0 0 .54 2.18 4.69 4.69 0 0 0 .9 1.51 2.94 2.94 0 0 0 1.25.81 3.65 3.65 0 0 0 1.6.1 4.25 4.25 0 0 0 1.52-.49 6.41 6.41 0 0 0 1.06-.76c.29-.27.53-.51.73-.72a.94.94 0 0 1 .52-.34.36.36 0 0 1 .27.05.53.53 0 0 1 .21.29 5.39 5.39 0 0 1 .18.59 8.22 8.22 0 0 1 .18.87Zm4.14-16.79a2.6 2.6 0 0 1 0 .36 1.69 1.69 0 0 1 0 .25.36.36 0 0 1-.08.15.17.17 0 0 1-.12.05l-5.4.76a.9.9 0 0 1-.28 0 .4.4 0 0 1-.2-.08.56.56 0 0 1-.14-.23 1.8 1.8 0 0 1-.09-.41 3.66 3.66 0 0 1 0-.42 1 1 0 0 1 0-.31 1.36 1.36 0 0 1 .11-.28 2.29 2.29 0 0 1 .2-.31l1.38-2a9.8 9.8 0 0 0 .65-1 5.09 5.09 0 0 0 .36-.83 3 3 0 0 0 .14-.66 2.55 2.55 0 0 0 0-.56 1.26 1.26 0 0 0-.14-.44 1.06 1.06 0 0 0-.28-.35.93.93 0 0 0-.4-.19 1.41 1.41 0 0 0-.55 0 2.58 2.58 0 0 0-.74.21 4.26 4.26 0 0 0-.54.33 3.86 3.86 0 0 0-.39.3.47.47 0 0 1-.24.15.16.16 0 0 1-.12 0 .32.32 0 0 1-.1-.14 1.65 1.65 0 0 1-.08-.26 3.16 3.16 0 0 1-.08-.42v-.28a1.21 1.21 0 0 1 0-.2.57.57 0 0 1 0-.15.94.94 0 0 1 .11-.17 1.76 1.76 0 0 1 .3-.27 4.51 4.51 0 0 1 .57-.34 5.27 5.27 0 0 1 .75-.33 4.92 4.92 0 0 1 .88-.21 3.75 3.75 0 0 1 1.3 0 2.66 2.66 0 0 1 1 .38 2.11 2.11 0 0 1 .65.71 2.72 2.72 0 0 1 .31.95 4.66 4.66 0 0 1 0 .91 3.16 3.16 0 0 1-.23 1 7.78 7.78 0 0 1-.61 1.24c-.28.46-.66 1-1.13 1.62l-.94 1.28 3.7-.52a.22.22 0 0 1 .14 0 .29.29 0 0 1 .13.12 1 1 0 0 1 .1.23c.05.08.08.22.1.36Z" transform="translate(-296.43 -121.18)"/></g></svg>